<?xml version="1.0" encoding="UTF-8" standalone="no"?>
<!-- Generator: Adobe Illustrator 19.0.0, SVG Export Plug-In . SVG Version: 6.00 Build 0)  -->

<svg
   xmlns:dc="http://purl.org/dc/elements/1.1/"
   xmlns:cc="http://creativecommons.org/ns#"
   xmlns:rdf="http://www.w3.org/1999/02/22-rdf-syntax-ns#"
   xmlns:svg="http://www.w3.org/2000/svg"
   xmlns="http://www.w3.org/2000/svg"
   xmlns:sodipodi="http://sodipodi.sourceforge.net/DTD/sodipodi-0.dtd"
   xmlns:inkscape="http://www.inkscape.org/namespaces/inkscape"
   version="1.1"
   id="Layer_1"
   x="0px"
   y="0px"
   viewBox="0 0 300.16 300.16"
   style="enable-background:new 0 0 300.16 300.16;"
   xml:space="preserve"
   inkscape:version="0.91 r13725"
   sodipodi:docname="loan.svg"><metadata
     id="metadata53"><rdf:RDF><cc:Work
         rdf:about=""><dc:format>image/svg+xml</dc:format><dc:type
           rdf:resource="http://purl.org/dc/dcmitype/StillImage" /></cc:Work></rdf:RDF></metadata><defs
     id="defs51" /><sodipodi:namedview
     pagecolor="#ffffff"
     bordercolor="#666666"
     borderopacity="1"
     objecttolerance="10"
     gridtolerance="10"
     guidetolerance="10"
     inkscape:pageopacity="0"
     inkscape:pageshadow="2"
     inkscape:window-width="1366"
     inkscape:window-height="701"
     id="namedview49"
     showgrid="false"
     inkscape:zoom="0.78624733"
     inkscape:cx="-244.19797"
     inkscape:cy="150.08"
     inkscape:window-x="0"
     inkscape:window-y="27"
     inkscape:window-maximized="1"
     inkscape:current-layer="g5" /><g
     id="g3"><g
       id="g5"><path
         style="fill:#000000"
         d="M135.556,48.403L82.302,33.899L69.216,44.782c-4.11-6.163-6.279-13.333-6.279-20.735V12.113    c0-6.676,5.427-12.103,12.103-12.103c6.676,0,12.103,5.427,12.103,12.103v4.841c0,1.331,1.089,2.421,2.421,2.421    s2.421-1.089,2.421-2.421v-4.841c0-6.676,5.427-12.103,12.103-12.103s12.103,5.427,12.103,12.103v4.841    c0,1.331,1.089,2.421,2.421,2.421s2.421-1.089,2.421-2.421v-4.841c0-6.676,5.427-12.103,12.103-12.103    c6.676,0,12.103,5.427,12.103,12.103v11.934c0,7.402-2.169,14.577-6.279,20.735L135.556,48.403z"
         id="path7" /><path
         style="fill:#000000"
         d="M59.238,121.022l-9.683-4.841H33.889V43.562H0v91.984h33.889v-9.683H47.27l9.683,4.841h5.984    v-9.683L59.238,121.022L59.238,121.022z M24.206,125.864H9.683v-72.62h14.524v72.62H24.206z"
         id="path9" /><path
         style="fill:#000000"
         d="M106.542,227.55c-0.876,0-1.748-0.015-2.629-0.053c-32.679-1.317-59.746-29.014-60.332-61.736    c-0.305-16.877,6.013-32.838,17.782-44.937c10.38-10.675,16.097-23.993,16.097-37.491l24.206-15.545l9.683,9.683v48.393h33.889    l5.669-5.829c11.958,11.89,18.537,27.716,18.537,44.579c0,17.293-6.87,33.415-19.346,45.397    C138.267,221.377,122.882,227.55,106.542,227.55z"
         id="path11" /><path
         style="fill:#000000"
         d="M151.145,67.788c2.324-2.576,3.776-5.96,3.776-9.692c0-8.007-6.516-14.534-14.524-14.534h-18.019    l-3.37-4.212L81.174,28.53L51.502,53.244H29.048v9.683h25.959l28.428-23.679l29.943,8.559l10.186,12.728    c1.346,1.685,1.941,3.796,1.67,5.935c-0.271,2.14-1.375,4.038-3.103,5.33c-3.123,2.343-7.562,2.028-10.331-0.736l-9.77-9.77    L74.44,83.367l6.047,7.562l20.822-16.659l3.641,3.645c0.533,0.533,1.128,0.968,1.714,1.418c0.353,3.534,1.641,5.611,3.621,7.804    c-2.324,2.576-3.776,5.955-3.776,9.687s1.457,7.112,3.776,9.683c-2.324,2.576-3.776,5.94-3.776,9.673    c0,8.017,6.516,14.524,14.524,14.524h19.365c8.007,0,14.524-6.507,14.524-14.514c0-3.733-1.457-7.102-3.776-9.678    c2.324-2.576,3.776-5.945,3.776-9.683c0-3.737-1.457-7.107-3.776-9.683c2.324-2.576,3.776-5.95,3.776-9.683    C154.921,73.733,153.464,70.363,151.145,67.788z M140.397,121.022h-19.365c-2.668,0-4.841-2.174-4.841-4.841    c0-2.668,2.174-4.841,4.841-4.841h19.365c2.668,0,4.841,2.174,4.841,4.841C145.239,118.849,143.065,121.022,140.397,121.022z     M140.397,101.657h-19.365c-2.668,0-4.841-2.174-4.841-4.841c0-2.668,2.174-4.841,4.841-4.841h19.365    c2.668,0,4.841,2.174,4.841,4.841C145.239,99.484,143.065,101.657,140.397,101.657z M140.397,82.292H122.46    c1.932-0.576,3.796-1.477,5.48-2.74c2.44-1.83,4.241-4.236,5.442-6.942h7.015c2.668,0,4.841,2.174,4.841,4.841    S143.065,82.292,140.397,82.292z M140.397,62.927h-5.679c-0.445-3.05-1.612-5.955-3.597-8.438l-0.997-1.244h10.273    c2.668,0,4.841,2.174,4.841,4.841C145.239,60.753,143.065,62.927,140.397,62.927z"
         id="path15" /><path
         style="fill:#000000"
         d="M266.271,227.531v14.524h-32.422l-13.304-8.869l-40.802-14.471    c-3.883-1.365-8.051-1.089-11.721,0.775c-3.675,1.864-6.352,5.059-7.548,9c-2.067,6.821,1.002,14.204,7.296,17.545l10.481,5.567    l-15.24,0.048l-6.265-15.666c-2.062-5.132-6.967-8.453-12.505-8.453c-4.323,0-8.409,2.101-10.932,5.606    c-2.522,3.515-3.205,8.056-1.825,12.152l1.467,4.347l-10.622-5.805c-3.379-1.854-7.417-2.212-11.072-0.978    c-3.655,1.22-6.662,3.936-8.25,7.446c-3.108,6.865-0.247,14.858,6.512,18.194l23.897,11.793l49.604,10.089l64.365,0.092    l18.886-3.776v13.459h33.889v-72.619L266.271,227.531L266.271,227.531z M141.172,238.787c1.627-2.266,5.548-1.786,6.579,0.799    l4.841,12.098l-8.724,0.029l-3.205-9.518C140.271,241.028,140.455,239.789,141.172,238.787z M246.426,280.785h-61.978    l-47.319-9.465l-23.325-11.508c-2.048-1.012-2.919-3.437-1.975-5.524c0.489-1.08,1.375-1.883,2.503-2.256    c1.118-0.387,2.319-0.276,3.36,0.3l16.63,9.087h45.949l19.104-9.552l-27.058-14.383c-2.217-1.181-3.302-3.781-2.576-6.187    c0.421-1.389,1.365-2.522,2.663-3.176c1.293-0.663,2.764-0.75,4.134-0.276l39.147,13.735l15.231,10.157h35.356v25.078    L246.426,280.785z M290.477,290.467h-14.524v-53.254h14.524V290.467z"
         id="path17" /><text
         xml:space="preserve"
         style="font-style:normal;font-weight:normal;font-size:40px;line-height:125%;font-family:sans-serif;letter-spacing:0px;word-spacing:0px;fill:#ffffff;fill-opacity:1;stroke:none;stroke-width:1px;stroke-linecap:butt;stroke-linejoin:miter;stroke-opacity:1;"
         x="77.389832"
         y="203.33289"
         id="text4181"
         sodipodi:linespacing="125%"><tspan
           sodipodi:role="line"
           id="tspan4183"
           x="77.389832"
           y="203.33289"
           style="font-size:90px;fill:#ffffff;">€</tspan></text>
<path
         style="fill:#ffffff;fill-opacity:1"
         d="m 54.944543,117.90183 c -1.863278,-1.06514 -6.733891,-1.83631 -11.764746,-1.86273 l -8.585084,-0.0451 0,-26.073224 0,-26.073221 10.231251,0 10.231251,0 14.310903,-11.994239 14.310902,-11.994237 14.544441,4.175643 14.544439,4.175643 6.06459,7.475214 c 6.69437,8.251476 7.29861,10.743557 3.52087,14.521298 -3.8721,3.872097 -7.14423,3.101155 -13.98128,-3.294103 -4.0564,-3.794286 -6.81994,-5.492293 -7.89466,-4.850722 -0.909456,0.542912 -7.237406,5.490291 -14.062114,10.994178 -11.180337,9.016548 -12.270364,10.265286 -11.012391,12.615832 1.893516,3.538066 0.483291,10.282859 -4.079448,19.511088 -4.222549,8.54019 -9.060941,14.64928 -11.548426,14.58137 -0.90796,-0.0248 -3.081684,-0.86302 -4.830498,-1.86273 z"
         id="path4158"
         inkscape:connector-curvature="0" /><path
         style="fill:#ffffff;fill-opacity:1"
         d="m 10.429289,89.284883 0,-35.612203 6.359322,0 6.359322,0 0,35.612203 0,35.612207 -6.359322,0 -6.359322,0 0,-35.612207 z"
         id="path4160"
         inkscape:connector-curvature="0" /><path
         style="fill:#ffffff;fill-opacity:1"
         d="m 158.60149,275.06524 c -19.57916,-4.05773 -24.59678,-5.60627 -34.6583,-10.69627 -11.60344,-5.87004 -13.51764,-7.97547 -9.94605,-10.93963 1.45222,-1.20524 3.71654,-0.46778 11.23731,3.65986 l 9.41863,5.16924 22.49532,0 22.49532,0 10.36777,-5.21281 10.36777,-5.21281 -11.98583,-6.40274 c -6.59221,-3.5215 -13.2736,-7.19849 -14.84753,-8.17108 -3.35654,-2.07413 -3.84082,-7.42116 -0.77856,-8.59625 3.37291,-1.29431 42.08918,12.95769 50.31149,18.52035 l 7.24343,4.90043 17.87589,0 17.87589,0 0,11.98077 0,11.98076 -8.83617,2.00975 c -6.94013,1.5785 -16.0144,1.98241 -42.28948,1.8824 l -33.45334,-0.12734 -22.89356,-4.74463 z"
         id="path4162"
         inkscape:connector-curvature="0" /><path
         style="fill:#ffffff;fill-opacity:1"
         d="m 276.24895,264.16624 0,-26.07322 6.99526,0 6.99525,0 0,26.07322 0,26.07322 -6.99525,0 -6.99526,0 0,-26.07322 z"
         id="path4164"
         inkscape:connector-curvature="0" /><path
         style="fill:#ffffff;fill-opacity:1"
         d="m 142.68588,246.30769 c -3.232,-9.79304 2.71788,-11.1986 6.50789,-1.53738 l 2.36997,6.04135 -3.69571,0 c -3.10412,0 -3.93365,-0.72097 -5.18215,-4.50397 z"
         id="path4166"
         inkscape:connector-curvature="0" /></g></g><g
     id="g19" /><g
     id="g21" /><g
     id="g23" /><g
     id="g25" /><g
     id="g27" /><g
     id="g29" /><g
     id="g31" /><g
     id="g33" /><g
     id="g35" /><g
     id="g37" /><g
     id="g39" /><g
     id="g41" /><g
     id="g43" /><g
     id="g45" /><g
     id="g47" /></svg>