<?xml version="1.0" encoding="UTF-8" standalone="no"?>
<!-- Generator: Adobe Illustrator 19.1.0, SVG Export Plug-In . SVG Version: 6.00 Build 0)  -->

<svg
   xmlns:dc="http://purl.org/dc/elements/1.1/"
   xmlns:cc="http://creativecommons.org/ns#"
   xmlns:rdf="http://www.w3.org/1999/02/22-rdf-syntax-ns#"
   xmlns:svg="http://www.w3.org/2000/svg"
   xmlns="http://www.w3.org/2000/svg"
   xmlns:sodipodi="http://sodipodi.sourceforge.net/DTD/sodipodi-0.dtd"
   xmlns:inkscape="http://www.inkscape.org/namespaces/inkscape"
   version="1.1"
   id="Capa_1"
   x="0px"
   y="0px"
   viewBox="0 0 484.5 484.5"
   style="enable-background:new 0 0 484.5 484.5;"
   xml:space="preserve"
   inkscape:version="0.91 r13725"
   sodipodi:docname="piggy-bank.svg"><metadata
     id="metadata45"><rdf:RDF><cc:Work
         rdf:about=""><dc:format>image/svg+xml</dc:format><dc:type
           rdf:resource="http://purl.org/dc/dcmitype/StillImage" /></cc:Work></rdf:RDF></metadata><defs
     id="defs43" /><sodipodi:namedview
     pagecolor="#ffffff"
     bordercolor="#666666"
     borderopacity="1"
     objecttolerance="10"
     gridtolerance="10"
     guidetolerance="10"
     inkscape:pageopacity="0"
     inkscape:pageshadow="2"
     inkscape:window-width="1366"
     inkscape:window-height="701"
     id="namedview41"
     showgrid="false"
     inkscape:zoom="0.4871001"
     inkscape:cx="-438.30826"
     inkscape:cy="242.25"
     inkscape:window-x="0"
     inkscape:window-y="27"
     inkscape:window-maximized="1"
     inkscape:current-layer="g5" /><g
     id="g3"><g
       id="g5"><path
         d="M449.9,178.2h-8.1c-11.7-30.6-31.6-58.3-58.3-80.7c0-0.1,0-0.1,0-0.2c-4-13.9-1-28.8,8.7-44.3c5-8,5.3-17.7,0.7-25.9    c-4.5-8.1-13-13.2-22.2-13.2c-1.1,0-2.2,0.1-3.2,0.2c-37.1,4.6-59.3,21.5-72.1,37.2c-22.2-6.1-45.2-9.2-68.6-9.2    c-60.3,0-117,20.6-159.8,58C23.8,137.9,0,188.3,0,242c0,13.9,1.6,27.8,4.9,41.4c0,0.2,0.1,0.5,0.2,0.7c0,0,0.1,0.2,0.2,0.6    c3.4,13.7,8.4,27.1,14.9,39.8c10.7,23.3,23.6,42.7,38.1,57.7c20.6,21.2,24.1,48,24.6,58.8v5.3c0,0.3,0,0.6,0,1c0,0.5,0,1,0.1,1.4    c1.2,12.3,11.7,21.8,24.1,21.8h74.5c13.3,0,24.2-10.9,24.2-24.2v-5c11.6,0.9,23.3,1.1,35,0.5v4.6c0,13.3,10.9,24.2,24.2,24.2h74.5    c13.3,0,24.2-10.9,24.2-24.2v-18.2c0.1-4.3,1.8-24.7,21.1-42.3c0.9-0.8,1.9-1.6,2.8-2.4c0.1-0.1,0.1-0.1,0.2-0.2    c0.2-0.2,0.5-0.4,0.7-0.6c25-22.4,43.7-49.7,54.5-79.5h7c19,0,34.5-15.5,34.5-34.5v-55.6C484.4,193.7,468.9,178.2,449.9,178.2z     M460.4,268.3c0,5.8-4.7,10.5-10.5,10.5h-15.6c-5.3,0-9.9,3.4-11.5,8.5c-8.9,29-26.5,55.8-50.8,77.5c-0.1,0.1-0.1,0.1-0.2,0.2    l-0.1,0.1c-0.9,0.8-1.8,1.6-2.7,2.4c-0.1,0.1-0.2,0.2-0.3,0.2c-26.2,23.8-28.9,51.8-29.1,59.8c0,0.1,0,0.2,0,0.3v18.4    c0,0.1-0.1,0.2-0.2,0.2h-74.5c-0.1,0-0.2-0.1-0.2-0.2v-17.5c0-3.4-1.4-6.6-4-8.9c-2.2-2-5.1-3.1-8-3.1c-0.4,0-0.8,0-1.3,0.1    c-8.2,0.9-16.5,1.3-24.7,1.3c-10.5,0-21.1-0.7-31.4-2.1c-3.4-0.5-6.9,0.6-9.5,2.9s-4.1,5.6-4.1,9v18.3c0,0.1-0.1,0.2-0.2,0.2H107    c-0.1,0-0.2-0.1-0.2-0.2l0,0v-5.6c0-0.2,0-0.4,0-0.5c-0.6-13.4-4.8-47.4-31.4-74.7c-12.7-13.1-24.1-30.3-33.8-51.2    c-0.1-0.2-0.1-0.3-0.2-0.4c-5.7-11.2-10.2-22.9-13.1-34.9c0-0.1-0.1-0.2-0.1-0.3c0-0.1,0-0.1,0-0.2c-2.9-11.9-4.3-24.1-4.3-36.2    c0-97,91-176,202.8-176c23.9,0,47.2,3.6,69.4,10.6c5.1,1.6,10.6-0.3,13.6-4.7c8.9-13.2,26.6-29.7,60.6-34c0.8-0.1,1.3,0.4,1.5,0.8    c0.4,0.7,0.1,1.3-0.1,1.5c-13.3,21.2-17.2,43.2-11.4,63.6c0,0.1,0.1,0.3,0.1,0.4c0.1,3.5,1.7,6.8,4.5,9c27.2,22,46.9,49.9,57,80.7    c1.6,4.9,6.2,8.3,11.4,8.3h0.1h16.4c5.8,0,10.5,4.7,10.5,10.5v55.4H460.4z"
         id="path7" /><text
         xml:space="preserve"
         style="font-style:normal;font-weight:normal;font-size:49.76939011px;line-height:125%;font-family:sans-serif;letter-spacing:0px;word-spacing:0px;fill:#000000;fill-opacity:1;stroke:none;stroke-width:1px;stroke-linecap:butt;stroke-linejoin:miter;stroke-opacity:1"
         x="156.8"
         y="313.48743"
         id="text4173"
         sodipodi:linespacing="125%"
         transform="scale(1.0074357,0.99261918)"><tspan
           sodipodi:role="line"
           id="tspan4175"
           x="156.8"
           y="313.48743"
           style="font-style:normal;font-variant:normal;font-weight:bold;font-stretch:normal;font-size:223.96218872px;font-family:'Open Sans';-inkscape-font-specification:'Open Sans Bold'">€</tspan></text>
<path
         style="fill:#ffffff;fill-opacity:1"
         d="M 106.54105,430.55421 C 101.89105,400.6443 95.348784,387.69902 68.128793,354.54725 54.076998,337.43329 37.307256,306.13796 31.275757,285.77288 2.4204859,188.34445 76.172935,88.510722 190.53807,70.190215 c 24.24575,-3.884003 70.36723,-1.799261 93.96017,4.247102 l 19.25499,4.934649 8.46005,-9.334685 c 12.29616,-13.567428 24.795,-21.899026 39.80923,-26.536451 19.49291,-6.020747 19.64294,-5.921028 12.81472,8.517271 -6.89799,14.585795 -9.29493,29.7061 -7.16968,45.227877 1.39583,10.194662 2.66243,12.142132 18.46797,28.395552 21.09739,21.69521 31.74493,36.88077 40.06066,57.1346 3.55561,8.66013 7.94479,16.90049 9.7537,18.3119 1.81219,1.41399 8.91991,2.56621 15.83022,2.56621 7.01705,0 13.62646,1.08516 15.00486,2.46356 1.70554,1.70554 2.46356,12.31779 2.46356,34.48983 0,22.17203 -0.75802,32.78429 -2.46356,34.48983 -1.35496,1.35496 -7.61624,2.46356 -13.91396,2.46356 -13.79279,0 -19.3614,3.39294 -22.75384,13.86388 -7.78134,24.01737 -21.18717,44.26764 -47.30053,71.45018 -10.90845,11.3551 -21.7956,24.49156 -24.19367,29.19216 -6.04769,11.85446 -10.49944,30.07665 -10.49944,42.97701 l 0,10.85999 -35.92691,0 -35.92691,0 0,-10.0374 c 0,-6.5256 -1.26526,-11.59992 -3.61636,-14.50341 -3.42478,-4.22944 -5.48684,-4.49532 -38.92338,-5.01905 -19.41886,-0.30417 -36.12989,-0.0144 -37.13562,0.64588 -3.86529,2.53429 -6.54921,10.54221 -6.54921,19.54067 l 0,9.37331 -35.55884,0 -35.55883,0 -2.38641,-15.35003 z M 273.96833,310.29649 c 6.67127,-2.34233 6.67214,-2.34449 6.67214,-16.7519 l 0,-14.40925 -5.64566,1.36165 c -3.10511,0.7489 -12.66384,1.89094 -21.24163,2.53785 -18.53943,1.3982 -28.18043,-2.10755 -34.66934,-12.60685 -6.65951,-10.7753 -5.94109,-11.34367 14.33841,-11.34367 l 18.47669,0 0,-10.26483 0,-10.26483 -19.50318,0 c -19.43474,0 -19.50317,-0.018 -19.50317,-5.13241 l 0,-5.13242 22.58262,0 22.58263,0 0,-10.26483 0,-10.26483 -21.77871,0 -21.77869,0 1.38554,-5.52044 c 4.80457,-19.14293 24.6399,-27.77593 46.27779,-20.14164 4.80045,1.6937 9.83463,3.07945 11.18707,3.07945 1.35243,0 4.83069,-5.77396 7.72945,-12.83103 l 5.2705,-12.83104 -9.51166,-3.75386 c -23.2328,-9.16901 -53.68921,-5.83577 -72.62018,7.94776 -10.78783,7.85456 -21.43983,24.38647 -23.42278,36.35218 -1.21822,7.35108 -1.63468,7.69862 -9.22529,7.69862 l -7.94948,0 0,10.26483 c 0,10.21189 0.0344,10.26484 6.67214,10.26628 5.6684,0.001 6.71668,0.77334 6.9682,5.13242 0.26099,4.523 -0.52958,5.13096 -6.67214,5.13096 l -6.9682,0 0,10.26483 0,10.26483 7.78607,0 c 7.44012,0 7.89102,0.39241 10.14819,8.8317 1.29916,4.85744 5.41707,13.37366 9.1509,18.92496 13.09268,19.46559 33.58415,28.41882 61.19238,26.73643 8.46849,-0.51605 18.39971,-1.99246 22.06939,-3.28092 z"
         id="path4154"
         inkscape:connector-curvature="0" /><path
         style="fill:#ffffff;fill-opacity:1"
         d="M 107.23264,434.09968 C 103.83437,406.08195 94.216556,386.53076 68.098426,354.54725 52.451735,335.38677 36.387882,304.2869 29.923729,280.64047 24.333875,260.19229 23.903056,227.9956 28.934794,206.73369 33.436312,187.71225 48.135967,158.5974 61.568569,142.09765 91.420135,105.42987 140.14576,78.262715 190.53807,70.190215 c 23.98306,-3.841921 70.34687,-1.813034 93.77388,4.103557 l 19.06871,4.815888 12.59429,-12.950816 c 13.33338,-13.710825 30.7468,-23.389059 46.66115,-25.933866 l 8.39345,-1.342166 -5.12373,11.045141 c -8.19573,17.667331 -10.42895,30.91196 -7.79998,46.25978 2.19909,12.838187 2.78844,13.754067 21.42075,33.288997 19.9305,20.89604 29.50617,34.87996 37.71518,55.07781 6.43174,15.82494 10.7867,19.0997 25.39985,19.0997 6.42388,0 12.78838,1.1086 14.14334,2.46356 1.70554,1.70554 2.46356,12.31779 2.46356,34.48983 0,22.17203 -0.75802,32.78429 -2.46356,34.48983 -1.35496,1.35496 -7.71946,2.46356 -14.14334,2.46356 -14.46483,0 -18.15146,2.92646 -24.56926,19.50318 -8.33486,21.52841 -20.80663,39.82926 -43.80935,64.28514 -28.2373,30.02112 -36.13949,46.55094 -36.13949,75.59676 l 0,8.95814 -35.92691,0 -35.92691,0 0,-10.0374 c 0,-17.51661 -1.39,-18.14609 -42.62917,-19.30532 l -35.44379,-0.99632 -4.0758,5.18154 c -2.79724,3.55613 -4.07581,8.31476 -4.07581,15.16953 l 0,9.98797 -35.69036,0 -35.69036,0 -1.43177,-11.80456 z m 165.84033,-124.42571 7.5675,-3.16192 0,-13.68836 0,-13.68835 -5.64566,1.36165 c -3.10511,0.7489 -12.66384,1.89094 -21.24163,2.53785 -18.53943,1.3982 -28.18043,-2.10755 -34.66934,-12.60685 -6.65951,-10.7753 -5.94109,-11.34367 14.33841,-11.34367 l 18.47669,0 0,-10.26483 0,-10.26483 -19.50318,0 c -19.43474,0 -19.50317,-0.018 -19.50317,-5.13241 l 0,-5.13242 22.58262,0 22.58263,0 0,-10.26483 0,-10.26483 -21.55614,0 c -24.36793,0 -25.87443,-1.27834 -16.93697,-14.3718 9.19868,-13.47616 24.95686,-17.52268 43.59528,-11.19477 5.1434,1.74622 10.23047,2.63179 11.30462,1.96793 2.29752,-1.41994 10.28177,-18.91125 10.28177,-22.52453 0,-5.99277 -28.05735,-12.44546 -45.97281,-10.57292 -29.10578,3.04215 -52.9166,23.28043 -57.75906,49.09296 -1.35465,7.22088 -1.82772,7.60313 -9.40974,7.60313 l -7.98339,0 0,10.26483 0,10.26483 7.18538,0 c 6.29576,0 7.18538,0.63544 7.18538,5.13242 0,4.49697 -0.88962,5.13241 -7.18538,5.13241 l -7.18538,0 0,10.26483 0,10.26483 7.96815,0 c 7.69064,0 8.04651,0.31123 10.2185,8.93698 5.12872,20.36801 24.71173,39.10381 46.29773,44.29479 11.24042,2.70308 35.59983,1.27179 44.96719,-2.64212 z"
         id="path4156"
         inkscape:connector-curvature="0" /></g></g><g
     id="g11" /><g
     id="g13" /><g
     id="g15" /><g
     id="g17" /><g
     id="g19" /><g
     id="g21" /><g
     id="g23" /><g
     id="g25" /><g
     id="g27" /><g
     id="g29" /><g
     id="g31" /><g
     id="g33" /><g
     id="g35" /><g
     id="g37" /><g
     id="g39" /></svg>