<?xml version="1.0" encoding="UTF-8" standalone="no"?>
<!-- Generator: Adobe Illustrator 19.1.0, SVG Export Plug-In . SVG Version: 6.00 Build 0)  -->

<svg
   xmlns:dc="http://purl.org/dc/elements/1.1/"
   xmlns:cc="http://creativecommons.org/ns#"
   xmlns:rdf="http://www.w3.org/1999/02/22-rdf-syntax-ns#"
   xmlns:svg="http://www.w3.org/2000/svg"
   xmlns="http://www.w3.org/2000/svg"
   xmlns:sodipodi="http://sodipodi.sourceforge.net/DTD/sodipodi-0.dtd"
   xmlns:inkscape="http://www.inkscape.org/namespaces/inkscape"
   version="1.1"
   id="Capa_1"
   x="0px"
   y="0px"
   viewBox="0 0 334.877 334.877"
   style="enable-background:new 0 0 334.877 334.877;"
   xml:space="preserve"
   inkscape:version="0.91 r13725"
   sodipodi:docname="wallet.svg"><metadata
     id="metadata41"><rdf:RDF><cc:Work
         rdf:about=""><dc:format>image/svg+xml</dc:format><dc:type
           rdf:resource="http://purl.org/dc/dcmitype/StillImage" /></cc:Work></rdf:RDF></metadata><defs
     id="defs39" /><sodipodi:namedview
     pagecolor="#ffffff"
     bordercolor="#666666"
     borderopacity="1"
     objecttolerance="10"
     gridtolerance="10"
     guidetolerance="10"
     inkscape:pageopacity="0"
     inkscape:pageshadow="2"
     inkscape:window-width="1366"
     inkscape:window-height="701"
     id="namedview37"
     showgrid="false"
     inkscape:zoom="0.70473634"
     inkscape:cx="-14.899189"
     inkscape:cy="167.43851"
     inkscape:window-x="0"
     inkscape:window-y="27"
     inkscape:window-maximized="1"
     inkscape:current-layer="Capa_1" /><g
     id="g3"><path
       d="M333.196,155.999h-16.067V82.09c0-17.719-14.415-32.134-32.134-32.134h-21.761L240.965,9.917   C237.571,3.798,231.112,0,224.107,0c-3.265,0-6.504,0.842-9.364,2.429l-85.464,47.526H33.815   c-17.719,0-32.134,14.415-32.134,32.134v220.653c0,17.719,14.415,32.134,32.134,32.134h251.18   c17.719,0,32.134-14.415,32.134-32.134v-64.802h16.067V155.999z M284.995,62.809c9.897,0,17.982,7.519,19.068,17.14h-24.152   l-9.525-17.14H284.995z M220.996,13.663c3.014-1.69,7.07-0.508,8.734,2.494l35.476,63.786H101.798L220.996,13.663z    M304.275,302.742c0,10.63-8.651,19.281-19.281,19.281H33.815c-10.63,0-19.281-8.651-19.281-19.281V82.09   c0-10.63,8.651-19.281,19.281-19.281h72.353L75.345,79.95H37.832c-3.554,0-6.427,2.879-6.427,6.427s2.873,6.427,6.427,6.427h14.396   h234.83h17.217v63.201h-46.999c-21.826,0-39.589,17.764-39.589,39.589v2.764c0,21.826,17.764,39.589,39.589,39.589h46.999V302.742z    M320.342,225.087h-3.213h-59.853c-14.743,0-26.736-11.992-26.736-26.736v-2.764c0-14.743,11.992-26.736,26.736-26.736h59.853   h3.213V225.087z M276.961,197.497c0,7.841-6.35,14.19-14.19,14.19c-7.841,0-14.19-6.35-14.19-14.19s6.35-14.19,14.19-14.19   C270.612,183.306,276.961,189.662,276.961,197.497z"
       id="path5" /></g><g
     id="g7" /><g
     id="g9" /><g
     id="g11" /><g
     id="g13" /><g
     id="g15" /><g
     id="g17" /><g
     id="g19" /><g
     id="g21" /><g
     id="g23" /><g
     id="g25" /><g
     id="g27" /><g
     id="g29" /><g
     id="g31" /><g
     id="g33" /><g
     id="g35" /><path
     style="fill:#ffffff;fill-opacity:1"
     d="m 23.966161,318.10911 c -9.093942,-5.56828 -8.783178,-1.09994 -8.783178,-126.2892 0,-123.728821 -0.354923,-118.172918 7.967348,-124.719218 3.607123,-2.837363 5.3713,-2.962581 41.533235,-2.947963 l 37.766094,0.01527 -14.060478,7.78907 -14.060482,7.78907 -20.065756,0 c -21.203076,0 -23.471286,0.636717 -23.471286,6.5887 0,7.886951 -5.243219,7.601004 139.374832,7.601004 l 133.06748,0 0,30.37955 0,30.37955 -28.02466,0.52559 c -32.21044,0.60409 -36.5437,1.83575 -47.22426,13.42279 -8.28566,8.98889 -10.42154,14.74464 -10.45272,28.16787 -0.0312,13.45495 3.01766,21.51575 11.25299,29.75109 10.17531,10.17531 14.73583,11.33879 46.49162,11.86112 l 28.09229,0.46207 -0.42237,36.05161 -0.42237,36.05161 -4.63864,4.63646 -4.63863,4.63647 -132.29202,0.36175 C 30.247152,320.98081 28.606964,320.9507 23.966161,318.10911 Z"
     id="path4169"
     inkscape:connector-curvature="0" /><path
     style="fill:#ffffff;fill-opacity:1"
     d="m 104.69637,79.233116 c 0.32518,-0.282161 27.25823,-15.314973 59.85123,-33.406249 45.44165,-25.22313 59.80931,-32.58582 61.61572,-31.574898 1.862,1.042026 33.95864,56.435277 36.9217,63.720454 0.57205,1.406504 -15.80995,1.773713 -79.12924,1.773713 -43.91786,0 -79.58459,-0.230859 -79.25941,-0.51302 z"
     id="path4173"
     inkscape:connector-curvature="0" /><path
     style="fill:#ffffff;fill-opacity:1"
     d="m 280.10724,78.681909 c -0.32488,-0.585326 -2.33884,-4.097277 -4.47548,-7.804338 l -3.8848,-6.740109 10.08846,0 c 9.44389,0 10.39745,0.29465 14.92442,4.611654 2.65977,2.536409 5.24756,6.048361 5.75066,7.804337 0.89426,3.121299 0.66064,3.192683 -10.44892,3.192683 -6.25001,0 -11.62946,-0.478902 -11.95434,-1.064227 z"
     id="path4175"
     inkscape:connector-curvature="0" /><path
     style="fill:#ffffff;fill-opacity:1"
     d="m 247.18464,221.7992 c -17.64217,-8.14239 -21.68218,-30.60014 -7.97127,-44.31104 2.85852,-2.85853 7.73707,-5.90241 10.84121,-6.76419 3.35211,-0.93062 18.75227,-1.57008 37.92546,-1.57478 l 32.28158,-0.008 0,27.66992 0,27.66993 -33.70055,-0.0312 c -29.72682,-0.0275 -34.3698,-0.34004 -39.37643,-2.65075 z m 25.54826,-13.51404 c 6.35975,-6.35974 6.35975,-15.16922 0,-21.52896 -4.83316,-4.83317 -15.046,-4.83317 -19.87917,0 -6.35974,6.35974 -6.35974,15.16922 0,21.52896 4.83317,4.83317 15.04601,4.83317 19.87917,0 z"
     id="path4177"
     inkscape:connector-curvature="0" /></svg>